<svg width="65" height="60" viewBox="0 0 65 60" fill="none" xmlns="http://www.w3.org/2000/svg">
<path d="M32.9045 5.06173C36.4254 4.8961 40.0101 4.71788 43.5565 4.93121C40.6881 2.89054 36.8997 2.08189 33.4584 2.68048C33.3946 2.69324 33.331 2.69962 33.2675 2.69962H33.2642C33.1337 2.74089 33 2.76631 32.8631 2.77916C32.5702 2.85241 32.2551 2.82043 31.9813 2.69634C31.8954 2.70276 31.8061 2.69634 31.7203 2.68048C28.2343 2.07246 24.3122 2.88097 21.3961 4.96305C24.9553 4.7433 28.5335 4.8961 32.0958 5.06173C32.1404 5.06487 32.1818 5.06802 32.2232 5.07758C32.3283 5.09357 32.4206 5.12856 32.5002 5.17311C32.6148 5.1127 32.7453 5.07444 32.8822 5.06487C32.8885 5.06173 32.8981 5.06173 32.9045 5.06173ZM42.6842 47.813C42.7925 45.8837 42.611 43.8877 42.2704 41.9903C41.9234 40.0611 41.3726 38.1511 40.5003 36.3906C38.9723 33.2994 36.1962 30.7144 32.9936 29.4218C32.9777 29.4155 32.9618 29.4091 32.949 29.4028C32.9395 29.4028 32.9299 29.3995 32.9203 29.3964C32.8217 29.3582 32.7199 29.3327 32.6148 29.3168C32.5479 29.3137 32.4842 29.3137 32.4174 29.3168C32.4143 29.3168 32.4079 29.32 32.4047 29.3168C32.3983 29.32 32.3951 29.32 32.3887 29.32H32.3824C32.3824 29.32 32.3792 29.32 32.3792 29.3231H32.376C32.3729 29.3231 32.3729 29.3264 32.3729 29.3264C32.3123 29.3614 32.2519 29.3964 32.185 29.4218C30.3449 30.1636 28.6514 31.3193 27.2347 32.7009C25.9485 33.9552 24.9298 35.3942 24.1944 37.0336C23.3954 38.8228 22.9083 40.7616 22.6123 42.694C22.4658 43.6554 22.383 44.6231 22.3353 45.591C22.2876 46.5396 22.2366 47.5169 22.3767 48.4593C22.5676 49.7805 23.5163 51.6682 25.0985 51.4008C24.6178 50.6941 24.153 49.9747 23.7074 49.2456C23.1183 48.2841 24.6305 47.4086 25.2163 48.3638C27.2888 51.7542 29.7273 54.8931 32.497 57.7423L32.5002 57.7455L32.5034 57.7423C35.273 54.8931 37.7115 51.7542 39.7841 48.3638C40.3698 47.4055 41.8788 48.2841 41.293 49.2456C40.8473 49.9747 40.3825 50.6941 39.9019 51.4008C40.6341 51.5154 41.3726 51.0569 41.8437 50.4807C42.4486 49.7518 42.6332 48.7331 42.6842 47.813ZM56.4242 23.7139C57.4429 22.1411 57.6213 20.193 57.5576 18.3623C57.4939 16.5668 57.1565 14.7364 56.4274 13.0841C55.7207 11.4765 54.6414 10.012 53.1579 9.04113C51.3816 7.88222 49.2678 7.39842 47.1984 7.07685C42.4773 6.34146 37.6574 6.58663 32.9045 6.80625H32.8535C32.8281 6.80625 32.8027 6.80311 32.7771 6.79996C32.7199 6.79354 32.6657 6.78083 32.6116 6.7617C32.5798 6.74899 32.5479 6.73628 32.5192 6.72029C32.4907 6.73628 32.462 6.74899 32.4301 6.75856C32.3792 6.77756 32.3283 6.79027 32.2709 6.79669C32.2424 6.80311 32.2105 6.80311 32.1787 6.80625H32.1627C32.1532 6.80311 32.1404 6.80311 32.1277 6.79669C32.1023 6.80311 32.0767 6.80311 32.0513 6.80311C26.773 6.55793 21.342 6.25235 16.1434 7.38243C14.2301 7.79639 12.3104 8.46809 10.8491 9.8178C9.53114 11.0308 8.64296 12.6289 8.11448 14.3288C7.57014 16.0735 7.35681 17.9167 7.44919 19.7409C7.54472 21.6095 8.06363 23.507 9.51214 24.7804C11.0179 26.0984 13.2018 26.649 15.1151 27.0343C17.369 27.4895 19.6961 27.5723 21.9787 27.3112C23.8219 27.0979 25.7862 26.6076 27.1169 25.2356C27.8396 24.4875 28.4222 23.6056 29.3199 23.0389C30.2685 22.4404 31.4814 22.2686 32.4842 22.8352C32.4907 22.8384 32.497 22.8417 32.5002 22.8448C32.5034 22.8417 32.5097 22.8384 32.5129 22.8352C33.6367 22.2017 34.9833 22.4978 35.9734 23.2491C36.922 23.9653 37.5173 25.035 38.4565 25.7577C40.2043 27.1042 42.6684 27.3685 44.798 27.4418C47.052 27.5213 49.2996 27.2603 51.4739 26.6554C53.3171 26.1428 55.3387 25.398 56.4242 23.7139ZM61.5433 46.0621C61.1359 45.3808 60.7475 44.6836 60.3845 43.9769C57.6148 38.5839 56.1378 32.5386 56.1536 26.4771C54.7975 27.4768 53.107 28.0434 51.5057 28.4541C49.134 29.0621 46.6509 29.3104 44.206 29.1609C42.0571 29.0271 39.7586 28.6897 37.9153 27.4991C36.9794 26.8973 36.33 26.0793 35.5913 25.2675C35.0884 24.7167 34.1969 23.8889 33.3947 24.3442C33.3343 24.3791 33.2769 24.4047 33.2165 24.4238C33.0955 24.5257 32.9522 24.5989 32.7963 24.637C32.6689 24.6689 32.5321 24.6784 32.4014 24.6657C32.3824 24.6657 32.3664 24.6626 32.3473 24.6593C32.3187 24.6562 32.29 24.653 32.2646 24.6466C32.1404 24.6275 32.0195 24.5766 31.9112 24.5129C31.8539 24.4778 31.7998 24.4397 31.7426 24.4078L31.6947 24.3791C31.6947 24.3791 31.6916 24.376 31.6884 24.3791C31.6788 24.3729 31.6693 24.3697 31.6597 24.3697C31.6566 24.3664 31.6533 24.3664 31.6502 24.3664H31.6375C31.6343 24.3633 31.6311 24.3633 31.6279 24.3633C31.5515 24.3442 31.4847 24.3123 31.4273 24.2646C30.5487 23.9589 29.6446 24.9873 29.1447 25.5698C28.3458 26.4931 27.5307 27.3207 26.4229 27.8748C24.1785 29.0017 21.4916 29.2404 19.0117 29.199C16.6336 29.1576 14.2332 28.7661 11.9761 28.0053C10.8618 27.6296 9.77946 27.1362 8.84673 26.4485C8.84987 27.7315 8.78946 29.0144 8.65895 30.291C8.0922 35.8494 6.32225 41.274 3.45393 46.0621C4.20833 45.4668 4.86103 44.7474 5.37038 43.9196C5.57729 43.5885 5.89559 43.4771 6.19803 43.5152H6.2013C6.77748 43.3434 7.54786 43.8018 7.3441 44.5626C6.69781 46.9663 5.80006 49.303 4.66998 51.525C6.00068 52.168 7.42049 52.6424 8.93583 53.0817C12.4631 54.1004 16.1305 54.7594 19.7471 55.2465C22.6758 55.6412 25.6302 55.9373 28.5877 56.02C27.709 54.9759 26.8654 53.8967 26.0695 52.7889C25.9612 52.9321 25.8085 53.0372 25.627 53.0722C23.1056 53.5878 21.1542 51.4295 20.7244 49.1246C20.527 48.0518 20.5302 46.963 20.5779 45.8775C20.6257 44.7027 20.7371 43.5343 20.909 42.3724C21.2369 40.1344 21.8513 37.9473 22.8063 35.894C24.5446 32.1597 27.9351 29.2627 31.7203 27.741C31.7584 27.7251 31.7967 27.7155 31.8348 27.706H31.838C31.9399 27.6327 32.0577 27.585 32.1787 27.5563C32.2296 27.5468 32.2805 27.5373 32.3346 27.534C32.4238 27.5118 32.5161 27.5022 32.6116 27.5022C32.8631 27.5022 33.0923 27.5627 33.3183 27.6678C33.3724 27.6933 33.4298 27.7218 33.4775 27.7601C33.4902 27.7632 33.4998 27.7632 33.5125 27.7632C35.6359 28.626 37.5556 29.9184 39.1633 31.558C42.2671 34.7288 43.6902 38.9819 44.2187 43.3116C44.3492 44.3971 44.4225 45.4891 44.4447 46.5841C44.467 47.6921 44.4256 48.8444 44.0786 49.9077C43.4228 51.9005 41.5636 53.521 39.3702 53.0722C39.1887 53.0372 39.0391 52.9321 38.9309 52.792C38.1318 53.8998 37.2913 54.9759 36.4127 56.02C37.7498 55.9786 39.0868 55.8864 40.4208 55.7686C43.9704 55.4534 47.5008 54.9409 50.99 54.196C52.6868 53.833 54.3708 53.4127 56.0262 52.8938C57.4716 52.4386 58.7099 51.9898 59.9994 51.3212C60.0598 51.2894 60.1234 51.264 60.1871 51.248C59.127 49.1086 58.277 46.8675 57.6562 44.5626C57.4493 43.7986 58.2197 43.3466 58.7992 43.5152H58.8023C59.1047 43.4771 59.423 43.5885 59.6301 43.9196C60.1394 44.7441 60.792 45.4668 61.5433 46.0621ZM64.8605 47.9149C65.3189 48.5451 64.5581 49.3983 63.8737 49.1947C62.5971 48.8157 61.4192 48.1919 60.3972 47.3641C60.8843 48.6662 61.4542 49.9364 62.1036 51.1684C62.3265 51.5855 62.215 52.1171 61.7916 52.3622C61.6229 52.4609 61.416 52.4959 61.2218 52.4673C61.1517 52.6201 61.0372 52.7506 60.8811 52.8303C59.3244 53.6325 57.6627 54.2278 55.9881 54.7307C52.5149 55.775 48.9271 56.4467 45.3392 56.9465C42.0316 57.4081 38.6921 57.7518 35.3526 57.787C35.1935 57.7901 35.0565 57.7551 34.9452 57.6979C34.5503 58.1307 34.1461 58.5573 33.7386 58.9776C33.331 59.3945 32.8027 59.264 32.5002 58.9266C32.1978 59.264 31.6693 59.3945 31.2618 58.9776C30.8512 58.5542 30.4469 58.1244 30.0489 57.6882C29.9311 57.7518 29.7879 57.7901 29.6224 57.787C27.8618 57.7678 26.1013 57.6564 24.3472 57.5037C20.5366 57.1692 16.7291 56.6409 12.9821 55.8641C9.71578 55.1892 6.36039 54.3679 3.37741 52.8303C3.11638 52.6965 2.97001 52.4163 2.95402 52.133C2.75353 51.8624 2.72798 51.4836 2.89361 51.1684C3.54619 49.9333 4.11608 48.663 4.60629 47.3609C3.58445 48.1886 2.40326 48.8157 1.12668 49.1947C0.439114 49.4016 -0.318556 48.542 0.13982 47.9149C1.22548 46.4218 2.19635 44.8523 3.0464 43.216C6.00068 37.5144 7.38865 31.0424 7.04808 24.6307C7.04808 24.6085 7.04808 24.5893 7.05122 24.5671C6.96841 24.4397 6.88887 24.306 6.81562 24.1691C5.82234 22.3386 5.60599 20.1738 5.70466 18.1236C5.80334 16.0829 6.22987 14.0742 7.06394 12.2023C7.86616 10.4004 9.11418 8.81509 10.7378 7.68488C12.5874 6.39885 14.8381 5.80341 17.0316 5.44371C17.595 5.35132 18.1585 5.27178 18.7251 5.20495C18.7411 5.02661 18.8207 4.84525 18.9926 4.68604C22.2716 1.61395 27.0436 0.324657 31.4655 0.89127H31.4687C31.507 0.878559 31.5484 0.872139 31.5896 0.875412C32.0099 0.89769 32.427 0.913548 32.8472 0.939102C32.9363 0.945393 33.0254 0.954956 33.1114 0.970943C33.1528 0.970943 33.1909 0.967667 33.2323 0.961376C33.2356 0.96452 33.2419 0.964523 33.2451 0.958233C33.4744 0.942245 33.7004 0.9104 33.9232 0.865849H33.9263C34.0983 0.846718 34.2766 0.830864 34.4517 0.814877H34.4548C38.6189 0.487015 42.9325 1.80816 46.0078 4.68604C46.1701 4.83883 46.2529 5.00761 46.2721 5.17639C47.3863 5.31634 48.491 5.50412 49.5861 5.75571C51.7063 6.24593 53.7692 7.09283 55.3864 8.58262C56.8636 9.94202 57.8727 11.7471 58.4967 13.6381C59.1143 15.5036 59.3722 17.5219 59.3085 19.4861C59.248 21.2531 58.8883 23.0486 57.9491 24.5479C57.9523 24.5766 57.9523 24.602 57.9523 24.6307C57.8536 26.4739 57.8918 28.3204 58.0733 30.154C58.7005 36.5434 61.088 42.729 64.8605 47.9149Z" fill="#0F0F0F"/>
<path d="M20.1862 36.8457C20.6095 36.6452 20.7209 36.0339 20.4982 35.6519C20.3708 35.4322 20.1766 35.3017 19.9633 35.254C19.855 35.1362 19.7149 35.0439 19.5559 34.9834C16.888 33.952 14.4718 32.1596 12.7271 29.8929C12.4375 29.5173 11.9759 29.3198 11.5334 29.5777C11.1641 29.7942 10.9285 30.3959 11.2182 30.7715C11.6353 31.3128 12.0777 31.8253 12.5458 32.3124C12.4375 32.3538 12.3356 32.4175 12.2433 32.497C11.32 33.3024 11.0209 34.5408 10.8552 35.706C10.6706 36.9826 10.6038 38.3993 11.3392 39.5325C12.673 41.5828 15.6146 41.6496 17.4675 40.3095C18.6007 39.4881 19.4125 38.3229 19.9951 37.0653C20.0174 37.0145 20.0365 36.9635 20.0525 36.9125L20.1862 36.8457ZM53.3455 39.9496C54.2114 38.9341 54.3642 37.5844 54.221 36.3014C54.0746 34.9547 53.8326 33.4362 52.7566 32.497C52.6642 32.4175 52.5624 32.3569 52.4542 32.3124C52.9221 31.8253 53.3646 31.3128 53.7817 30.7715C54.0682 30.3991 53.839 29.7942 53.4665 29.5777C53.0177 29.3136 52.5624 29.5173 52.2727 29.8929C50.5249 32.1596 48.1087 33.952 45.4441 34.9834C45.2849 35.0471 45.1417 35.1394 45.0334 35.2604C44.817 35.3081 44.6259 35.4386 44.5018 35.6519C44.2789 36.0339 44.3871 36.6419 44.8137 36.8457C44.8615 36.868 44.9061 36.8902 44.9506 36.9221C44.9633 36.9699 44.9825 37.0176 45.0047 37.0653C45.9916 39.1984 47.8094 41.2422 50.3403 41.2262C51.4482 41.2198 52.6133 40.806 53.3455 39.9496ZM60.3843 43.9767C60.7471 44.6835 61.1355 45.3807 61.5431 46.062C60.7918 45.4666 60.1391 44.744 59.6298 43.9195C59.4229 43.5885 59.1046 43.4769 58.8021 43.5151H58.7988C58.2195 43.3464 57.4491 43.7985 57.6561 44.5626C58.2768 46.8675 59.1268 49.1086 60.1869 51.248C60.1233 51.2638 60.0596 51.2892 59.999 51.3211C58.7097 51.9896 57.4714 52.4386 56.0261 52.8938C54.3706 53.4127 52.6865 53.8328 50.9897 54.1958C47.5006 54.9408 43.9702 55.4533 40.4205 55.7684C39.0866 55.8862 37.7496 55.9786 36.4125 56.02C37.2911 54.9758 38.1316 53.8998 38.9307 52.7919C39.0389 52.9319 39.1886 53.037 39.3699 53.072C41.5634 53.5208 43.4226 51.9005 44.0784 49.9077C44.4254 48.8443 44.4667 47.6919 44.4444 46.584C44.4221 45.4889 44.349 44.397 44.2185 43.3114C43.69 38.9819 42.2669 34.7288 39.163 31.5579C37.5554 29.9184 35.6357 28.6259 33.5123 27.7631C33.4996 27.7631 33.49 27.7631 33.4773 27.7601C33.4295 27.7218 33.3722 27.6931 33.3181 27.6677C33.0921 27.5626 32.8629 27.5021 32.6114 27.5021C32.5159 27.5021 32.4235 27.5118 32.3344 27.5339C32.2803 27.5372 32.2293 27.5468 32.1785 27.5562C32.0574 27.5849 31.9396 27.6326 31.8378 27.7058H31.8346C31.7964 27.7154 31.7582 27.725 31.72 27.741C27.9348 29.2626 24.5444 32.1596 22.8062 35.8938C21.8511 37.9472 21.2367 40.1343 20.9088 42.3723C20.7369 43.5342 20.6255 44.7025 20.5777 45.8773C20.53 46.963 20.5267 48.0517 20.7242 49.1245C21.1539 51.4293 23.1054 53.5878 25.6268 53.072C25.8083 53.037 25.9611 52.9319 26.0693 52.7887C26.8651 53.8967 27.7087 54.9758 28.5875 56.02C25.6299 55.9372 22.6756 55.6412 19.7468 55.2464C16.1304 54.7593 12.463 54.1003 8.93564 53.0816C7.4203 52.6422 6.00049 52.168 4.66979 51.5248C5.79987 49.3028 6.69762 46.9661 7.34391 44.5626C7.54767 43.8017 6.77716 43.3433 6.20098 43.5151H6.19784C5.8954 43.4769 5.57697 43.5885 5.37006 43.9195C4.86071 44.7472 4.20814 45.4666 3.45361 46.062C6.32193 41.2739 8.09201 35.8493 8.65863 30.291C8.78914 29.0143 8.84968 27.7314 8.84654 26.4484C9.77927 27.1361 10.8617 27.6294 11.9759 28.0051C14.233 28.7659 16.6334 29.1576 19.0114 29.199C21.4914 29.2403 24.1783 29.0016 26.4226 27.8746C27.5305 27.3207 28.3454 26.4929 29.1445 25.5698C29.6443 24.9872 30.5485 23.9589 31.4271 24.2645C31.4844 24.3123 31.5513 24.3442 31.6277 24.3632C31.6309 24.3632 31.634 24.3632 31.6373 24.3664H31.65C31.6531 24.3664 31.6563 24.3664 31.6596 24.3696C31.6881 24.3856 31.7168 24.3983 31.7422 24.4078C31.7996 24.4396 31.8538 24.4778 31.911 24.5128C32.0193 24.5765 32.1402 24.6275 32.2643 24.6465C32.2899 24.6529 32.3186 24.6562 32.3471 24.6592C32.3663 24.6625 32.3821 24.6656 32.4012 24.6656C32.5318 24.6783 32.6687 24.6689 32.7961 24.637C32.952 24.5988 33.0952 24.5255 33.2162 24.4237C33.2767 24.4046 33.334 24.3791 33.3945 24.3442C34.1967 23.8889 35.0881 24.7166 35.5911 25.2673C36.3297 26.0791 36.9791 26.8973 37.9151 27.4989C39.7583 28.6896 42.0569 29.027 44.2057 29.1608C46.6506 29.3104 49.1338 29.0621 51.5055 28.4539C53.1068 28.0434 54.7972 27.4767 56.1534 26.4771C56.1374 32.5384 57.6146 38.5839 60.3843 43.9767Z" fill="#EAEAEA"/>
<path d="M26.3845 20.6639C29.0905 18.5978 30.6664 14.7808 29.3356 11.4891C29.2911 11.3777 29.2337 11.2757 29.1606 11.1866C29.151 11.1358 29.135 11.088 29.1065 11.0434C28.9535 10.8078 28.7371 10.604 28.4793 10.4864C28.3646 10.4353 28.25 10.3876 28.1259 10.3653C27.9794 10.2602 27.798 10.1966 27.6038 10.1744C23.7931 9.70944 19.9061 9.90691 16.1591 10.7537C14.6852 11.088 13.208 11.5973 12.0205 12.565C10.8395 13.5298 10.1518 15.0101 10.2633 16.5413C10.3842 18.1617 11.1929 19.6929 12.4472 20.7245C13.746 21.7877 15.3505 22.383 16.9995 22.6409C20.2085 23.1407 23.7422 22.6759 26.3845 20.6639ZM54.5235 17.7479C54.9851 16.1816 54.7018 14.5325 53.6736 13.2592C52.7376 12.1002 51.2922 11.4445 49.8947 11.0274C47.9495 10.4481 45.8803 10.1679 43.862 10.0183C41.7067 9.85594 39.5388 9.9132 37.3931 10.1744C37.1861 10.1966 36.992 10.273 36.8391 10.394C36.7691 10.429 36.7023 10.4672 36.6386 10.5054C36.5653 10.5404 36.4954 10.5786 36.4317 10.6263C36.3649 10.6773 36.2948 10.7314 36.2343 10.792C36.2025 10.8238 36.1738 10.8555 36.1451 10.8906L36.1388 10.8969C36.1261 10.916 36.1101 10.9383 36.091 10.9606C35.9001 11.0753 35.7536 11.2662 35.6645 11.4891C34.5088 14.3478 35.5658 17.7319 37.6796 19.8586C39.994 22.1888 43.4895 23.0357 46.6889 22.7969C49.9425 22.5518 53.5144 21.1637 54.5235 17.7479ZM57.5574 18.3624C57.621 20.1928 57.4428 22.141 56.4241 23.7137C55.3386 25.3979 53.317 26.1428 51.4737 26.6553C49.2994 27.2602 47.0519 27.5212 44.7979 27.4417C42.6681 27.3684 40.204 27.1041 38.4564 25.7576C37.5172 25.0349 36.9219 23.9652 35.9732 23.2489C34.9832 22.4977 33.6365 22.2015 32.5127 22.8351C32.5096 22.8383 32.5033 22.8415 32.5 22.8447C32.4968 22.8415 32.4904 22.8383 32.4841 22.8351C31.4813 22.2685 30.2684 22.4403 29.3197 23.0389C28.4219 23.6055 27.8393 24.4874 27.1168 25.2355C25.7861 26.6075 23.8218 27.0978 21.9786 27.3112C19.696 27.5722 17.3689 27.4894 15.1149 27.0341C13.2016 26.6489 11.0177 26.0983 9.51189 24.7803C8.06339 23.5068 7.54447 21.6094 7.44907 19.7408C7.35669 17.9166 7.57002 16.0734 8.11436 14.3287C8.64284 12.6287 9.53103 11.0307 10.849 9.81767C12.3102 8.46797 14.2298 7.79626 16.1431 7.38244C21.3419 6.25223 26.7729 6.55781 32.0512 6.80299C32.067 6.80613 32.0797 6.80613 32.0957 6.80613H32.1785C32.4045 6.83483 32.6305 6.83483 32.8534 6.80613H32.9044C37.6573 6.58651 42.4772 6.34133 47.1983 7.07673C49.2675 7.3983 51.3814 7.88209 53.1578 9.041C54.6413 10.0119 55.7205 11.4764 56.4272 13.084C57.1562 14.7362 57.4938 16.5667 57.5574 18.3624Z" fill="#EAEAEA"/>
<path d="M52.9984 16.2515C53.0079 14.8126 52.1102 13.9053 50.945 13.3068C50.9418 13.31 50.9418 13.31 50.9387 13.31C50.8813 13.3418 50.8209 13.3547 50.7541 13.3514H50.5821C50.5374 13.3514 50.4993 13.345 50.4579 13.3355C50.4069 13.3737 50.3434 13.3991 50.2637 13.4119C46.3066 14.0454 42.7697 16.5063 40.8851 20.0336C42.9258 21.065 45.3738 21.3038 47.5991 20.9472C50.0632 20.5525 52.9857 19.1294 52.9984 16.2515ZM53.6732 13.2591C54.7015 14.5324 54.9849 16.1816 54.5233 17.7477C53.5141 21.1637 49.9421 22.5518 46.6887 22.7968C43.4892 23.0356 39.9938 22.1888 37.6793 19.8584C35.5654 17.7319 34.5086 14.3478 35.6642 11.489C35.7533 11.2662 35.8997 11.0752 36.0908 10.9606C36.1099 10.9383 36.1257 10.916 36.1385 10.8969L36.1449 10.8905C36.1736 10.8555 36.2021 10.8238 36.234 10.7918C36.2945 10.7314 36.3645 10.6773 36.4315 10.6263C36.495 10.5786 36.5651 10.5403 36.6384 10.5053C36.7021 10.4671 36.7689 10.4289 36.8389 10.394C36.9916 10.2729 37.1858 10.1965 37.3928 10.1743C39.5385 9.91317 41.7064 9.85591 43.8616 10.0183C45.88 10.1679 47.9493 10.4481 49.8944 11.0274C51.292 11.4445 52.7373 12.1002 53.6732 13.2591Z" fill="#0F0F0F"/>
<path d="M54.2214 36.3014C54.3646 37.5844 54.2118 38.9341 53.3459 39.9496C52.6136 40.806 51.4486 41.2199 50.3406 41.2262C47.8097 41.2422 45.992 39.1984 45.0051 37.0655C44.9828 37.0176 44.9637 36.9699 44.951 36.9222C44.9064 36.8904 44.8619 36.8681 44.8141 36.8457C44.3875 36.6421 44.2793 36.0339 44.5022 35.6519C44.6263 35.4387 44.8173 35.3081 45.0338 35.2604C45.142 35.1395 45.2853 35.0471 45.4445 34.9834C48.109 33.952 50.5253 32.1597 52.2731 29.893C52.5628 29.5173 53.018 29.3136 53.4668 29.5777C53.8394 29.7944 54.0686 30.3991 53.782 30.7716C53.365 31.3128 52.9225 31.8253 52.4546 32.3125C52.5628 32.357 52.6646 32.4175 52.757 32.4972C53.833 33.4362 54.0749 34.9548 54.2214 36.3014Z" fill="#0F0F0F"/>
<path d="M50.9456 13.3069C52.1108 13.9054 53.0086 14.8127 52.999 16.2516C52.9863 19.1297 50.0637 20.5526 47.5998 20.9473C45.3745 21.3039 42.9264 21.0651 40.8857 20.0337C42.7703 16.5064 46.3072 14.0455 50.2644 13.412C50.3439 13.3993 50.4076 13.3738 50.4586 13.3356C50.5 13.3452 50.5381 13.3515 50.5827 13.3515H50.7546C50.8214 13.3548 50.8819 13.3421 50.9392 13.3101C50.9425 13.3101 50.9425 13.3101 50.9456 13.3069Z" fill="#EAEAEA"/>
<path d="M42.2701 41.9902C42.6108 43.8876 42.7921 45.8837 42.6839 47.8128C42.633 48.7329 42.4484 49.7516 41.8435 50.4807C41.3723 51.0569 40.6338 51.5152 39.9015 51.4007C40.3823 50.6939 40.8471 49.9745 41.2928 49.2455C41.8785 48.2841 40.3695 47.4054 39.7837 48.3636C37.7113 51.7541 35.2727 54.893 32.503 57.7422L32.4999 57.7454L32.4967 57.7422C29.7271 54.893 27.2885 51.7541 25.2161 48.3636C24.6302 47.4086 23.1181 48.2841 23.707 49.2455C24.1527 49.9745 24.6175 50.6939 25.0983 51.4007C23.516 51.668 22.5674 49.7803 22.3763 48.4591C22.2362 47.5168 22.2872 46.5394 22.3349 45.5908C22.3827 44.623 22.4654 43.6552 22.6119 42.6938C22.9079 40.7615 23.395 38.8226 24.1941 37.0336C24.9295 35.394 25.9482 33.955 27.2343 32.7007C28.651 31.3191 30.3447 30.1636 32.1847 29.4217C32.2516 29.3963 32.3121 29.3613 32.3725 29.3262C32.3725 29.3262 32.3725 29.3231 32.3757 29.3231H32.3789C32.3821 29.3199 32.3852 29.3199 32.3885 29.3199C32.3948 29.3199 32.3981 29.3199 32.4044 29.3168C32.4075 29.3199 32.4139 29.3168 32.4171 29.3168C32.4839 29.3135 32.5476 29.3135 32.6144 29.3168C32.7195 29.3326 32.8215 29.3581 32.9201 29.3963C32.9297 29.3995 32.9393 29.4026 32.9487 29.4026C32.9615 29.409 32.9774 29.4155 32.9934 29.4217C36.196 30.7143 38.9719 33.2993 40.5 36.3904C41.3723 38.1509 41.9231 40.0611 42.2701 41.9902Z" fill="#EAEAEA"/>
<path d="M43.5563 4.93127C40.0099 4.71793 36.4253 4.89615 32.9043 5.06178C32.898 5.06178 32.8884 5.06178 32.882 5.06493C32.6624 5.06807 32.4427 5.07135 32.223 5.07764C32.1817 5.06807 32.1403 5.06493 32.0957 5.06178C28.5333 4.89615 24.9552 4.74336 21.396 4.96311C24.312 2.88102 28.2342 2.07251 31.7201 2.68053C31.806 2.69639 31.8951 2.70281 31.9811 2.69639C32.2548 2.82062 32.57 2.85246 32.863 2.77921C32.9998 2.76637 33.1336 2.74094 33.2641 2.69967H33.2672C33.3309 2.69967 33.3946 2.69329 33.4583 2.68053C36.8996 2.08195 40.688 2.89059 43.5563 4.93127Z" fill="#EAEAEA"/>
<path d="M26.0025 18.7062C27.5719 17.1717 28.3901 14.9146 27.9126 12.8008H27.9062C27.6069 12.7627 27.3109 12.734 27.0116 12.7148H27.002C26.2762 12.7467 25.5504 12.7562 24.8277 12.7435C22.9527 12.9123 21.119 13.4566 19.4603 14.3735C17.1969 15.6246 15.3377 17.5124 14.0898 19.7695C15.3314 20.5781 16.9359 20.9538 18.3748 21.0525C21.0616 21.2435 24.0192 20.6449 26.0025 18.7062ZM29.3356 11.4892C30.6663 14.7809 29.0904 18.598 26.3845 20.6641C23.7422 22.676 20.2084 23.1408 16.9996 22.6411C15.3504 22.3832 13.746 21.7879 12.4471 20.7246C11.1928 19.6931 10.3842 18.1619 10.2632 16.5414C10.1518 15.0101 10.8394 13.5299 12.0205 12.5652C13.2079 11.5975 14.6851 11.0881 16.1591 10.7538C19.906 9.90705 23.7932 9.70957 27.6038 10.1745C27.798 10.1968 27.9795 10.2603 28.1258 10.3654C28.2501 10.3877 28.3646 10.4354 28.4793 10.4864C28.7371 10.6042 28.9536 10.8079 29.1064 11.0436C29.1351 11.0881 29.151 11.1359 29.1605 11.1868C29.2338 11.2759 29.291 11.3778 29.3356 11.4892Z" fill="#0F0F0F"/>
<path d="M27.9127 12.8005C28.3902 14.9143 27.5721 17.1715 26.0025 18.7059C24.0192 20.6447 21.0618 21.2432 18.3748 21.0522C16.9359 20.9535 15.3314 20.5778 14.0898 19.7692C15.3379 17.5122 17.1969 15.6243 19.4605 14.3731C21.1191 13.4564 22.9527 12.912 24.8279 12.7432C25.5505 12.756 26.2764 12.7464 27.0022 12.7145H27.0118C27.3109 12.7337 27.6071 12.7622 27.9062 12.8005H27.9127Z" fill="#EAEAEA"/>
<path d="M20.4981 35.6518C20.721 36.0339 20.6095 36.6451 20.1861 36.8456L20.0525 36.9125C20.0366 36.9634 20.0175 37.0143 19.9951 37.0653C19.4126 38.3228 18.6008 39.488 17.4675 40.3093C15.6147 41.6496 12.6731 41.5826 11.3392 39.5325C10.6038 38.3992 10.6707 36.9825 10.8554 35.7059C11.0209 34.5407 11.3202 33.3024 12.2433 32.497C12.3356 32.4174 12.4375 32.3538 12.5458 32.3124C12.0778 31.8252 11.6353 31.3127 11.2182 30.7715C10.9285 30.3958 11.1641 29.7942 11.5334 29.5776C11.9759 29.3199 12.4375 29.5172 12.7273 29.8929C14.4718 32.1596 16.888 33.9518 19.5558 34.9832C19.7151 35.0438 19.8551 35.136 19.9634 35.2538C20.1766 35.3017 20.3708 35.4322 20.4981 35.6518Z" fill="#0F0F0F"/>
</svg>
